<svg aria-hidden="true" style="position: absolute; width: 0; height: 0; overflow: hidden;" version="1.1" xmlns="http://www.w3.org/2000/svg" xmlns:xlink="http://www.w3.org/1999/xlink">
<defs>
<symbol id="smartphone" viewBox="0 0 20 32">
<path d="M17.002 0h-14.003c-1.654 0-3.001 1.346-3.001 3.001v26.006c0 1.654 1.346 3.001 3.001 3.001h14.003c1.654 0 3.001-1.346 3.001-3.001v-26.006c0-1.654-1.346-3.001-3.001-3.001zM2.998 2.001h14.003c0.552 0 1 0.448 1 1v0 21.005h-16.004v-21.005c0-0.552 0.448-1 1-1v0zM17.002 30.007h-14.003c-0.552 0-1-0.448-1-1v0-3.001h16.004v3.001c0 0.552-0.448 1-1 1v0z"></path>
<path d="M4.707 27.485c0.18 0.164 0.293 0.399 0.293 0.66s-0.113 0.497-0.292 0.66l-0.001 0.001c-0.186 0.17-0.435 0.275-0.708 0.275s-0.522-0.104-0.709-0.275l0.001 0.001c-0.18-0.164-0.293-0.399-0.293-0.66s0.113-0.497 0.292-0.66l0.001-0.001c0.186-0.17 0.435-0.275 0.708-0.275s0.522 0.104 0.709 0.275l-0.001-0.001z"></path>
</symbol>
<symbol id="envelope" viewBox="0 0 43 32">
<path d="M38.676 0.006h-34.675c-2.206 0-4.001 1.795-4.001 4.001v24.006c0 2.206 1.795 4.001 4.001 4.001h34.675c2.206 0 4.001-1.795 4.001-4.001v-24.006c0-2.206-1.795-4.001-4.001-4.001zM38.676 2.674c0.181 0 0.355 0.037 0.512 0.104l-17.85 15.47-17.85-15.47c0.151-0.065 0.327-0.104 0.512-0.104h34.675zM38.676 29.347h-34.675c-0.737 0-1.334-0.597-1.334-1.334v0-22.419l17.796 15.425c0.233 0.203 0.539 0.327 0.875 0.327s0.642-0.124 0.876-0.328l-0.002 0.001 17.796-15.425v22.419c0 0.737-0.597 1.334-1.334 1.334v0z"></path>
</symbol>
</defs>
</svg>
